HIERARCHY
ROOT Hips
{
  OFFSET 265.287 66.7526 -254.649
  CHANNELS 6 Xposition Yposition Zposition Zrotation Xrotation Yrotation
  JOINT LeftUpLeg
  {
    OFFSET 8.64259 1.95398 -2.38835
    CHANNELS 3 Zrotation Xrotation Yrotation
    JOINT LeftLeg
    {
      OFFSET 43.7702 0 0
      CHANNELS 3 Zrotation Xrotation Yrotation
      JOINT LeftFoot
      {
        OFFSET 40.6238 0 0
        CHANNELS 3 Zrotation Xrotation Yrotation
        JOINT LeftToeBase
        {
          OFFSET 12.7242 0 0
          CHANNELS 3 Zrotation Xrotation Yrotation
          End Site
          {
            OFFSET 0 0 0
          }
        }
      }
    }
  }
  JOINT RightUpLeg
  {
    OFFSET -8.2249 1.95398 -2.59336
    CHANNELS 3 Zrotation Xrotation Yrotation
    JOINT RightLeg
    {
      OFFSET 43.5653 0 0
      CHANNELS 3 Zrotation Xrotation Yrotation
      JOINT RightFoot
      {
        OFFSET 40.6238 0 0
        CHANNELS 3 Zrotation Xrotation Yrotation
        JOINT RightToeBase
        {
          OFFSET 12.7242 0 0
          CHANNELS 3 Zrotation Xrotation Yrotation
          End Site
          {
            OFFSET 0 0 0
          }
        }
      }
    }
  }
  JOINT Spine
  {
    OFFSET 0.165834 0.87714 6.61349
    CHANNELS 3 Zrotation Xrotation Yrotation
    JOINT Spine1
    {
      OFFSET 7.38963 1.71661e-005 0
      CHANNELS 3 Zrotation Xrotation Yrotation
      JOINT Spine2
      {
        OFFSET 11.9445 1.14441e-005 0
        CHANNELS 3 Zrotation Xrotation Yrotation
        JOINT Spine3
        {
          OFFSET 14.7254 4.19617e-005 0
          CHANNELS 3 Zrotation Xrotation Yrotation
          JOINT Spine4
          {
            OFFSET 10.9679 0 0
            CHANNELS 3 Zrotation Xrotation Yrotation
            JOINT RightShoulder
            {
              OFFSET 2.46616 -1.6653 3.69651
              CHANNELS 3 Zrotation Xrotation Yrotation
              JOINT RightArm
              {
                OFFSET 13.0012 0 0
                CHANNELS 3 Zrotation Xrotation Yrotation
                JOINT RightForeArm
                {
                  OFFSET 28.7848 1.52588e-005 0
                  CHANNELS 3 Zrotation Xrotation Yrotation
                  JOINT RightHand
                  {
                    OFFSET 26.5688 1.52588e-005 0
                    CHANNELS 3 Zrotation Xrotation Yrotation
                    End Site
                    {
                      OFFSET 0 0 0
                    }
                  }
                }
              }
            }
            JOINT LeftShoulder
            {
              OFFSET 2.38034 -1.29275 -3.7523
              CHANNELS 3 Zrotation Xrotation Yrotation
              JOINT LeftArm
              {
                OFFSET 16.3182 6.10351e-005 0
                CHANNELS 3 Zrotation Xrotation Yrotation
                JOINT LeftForeArm
                {
                  OFFSET 27.0901 0 0
                  CHANNELS 3 Zrotation Xrotation Yrotation
                  JOINT LeftHand
                  {
                    OFFSET 24.5451 1.52588e-005 0
                    CHANNELS 3 Zrotation Xrotation Yrotation
                    End Site
                    {
                      OFFSET 0 0 0
                    }
                  }
                }
              }
            }
            JOINT Neck
            {
              OFFSET 5.0226 -0.0266342 0
              CHANNELS 3 Zrotation Xrotation Yrotation
              JOINT Head
              {
                OFFSET 6.69364 2.86102e-005 0
                CHANNELS 3 Zrotation Xrotation Yrotation
                End Site
                {
                  OFFSET 0 0 0
                }
              }
            }
          }
        }
      }
    }
  }
}
MOTION
Frames:	6
Frame Time:	0.0416667
-230.565 91.3357 252.512 -96.1729 -59.1494 -93.6836 -179.026 -6.06442 90.539 -34.3603 24.3343 6.57116 62.4328 2.66108 2.75742 46.8099 -5.55844 -0.0242862 176.323 15.8571 89.1596 -13.2885 -4.44272 1.05523 52.5662 7.84949 18.8717 50.0114 -3.46511 -5.36938 -2.7079 8.11576 -90.0455 10.6615 -5.41395 0.40256 -0.998282 -5.39096 0.641133 -23.6212 -5.28391 -1.24786 -3.60855 -5.28391 -1.24788 89.1038 -56.5509 -100.896 25.6501 1.65138 -8.61028 0.437611 -17.5585 -3.51972 -11.9412 -0.574458 0.423675 -78.0182 -37.0547 96.5361 -29.3726 13.9131 -28.4102 17.793 22.2631 -31.1731 -1.9604 -0.0870647 -3.4029 11.0529 5.39376 -23.1389 -12.5688 8.83478 24.3038 
-224.703 91.202 245.278 -100.417 -57.7516 -99.7166 -179.243 -7.40193 86.1236 -28.734 27.0819 5.96503 68.3532 7.42142 15.4303 42.6023 -4.23783 1.08237 175.795 16.2907 86.4837 -8.68311 2.98879 0.53226 50.9999 7.08526 24.8211 56.7248 -4.40813 -2.67026 -2.34648 8.18838 -89.7596 10.5216 -4.56348 0.885019 -1.14179 -4.52008 1.08538 -23.7408 -4.61804 -0.530374 -3.72816 -4.61805 -0.53038 93.7374 -56.3841 -94.3068 25.8376 1.43722 -2.86916 -1.03263 -18.1912 -8.3781 -10.8869 -0.658455 1.88991 -80.0519 -41.7446 93.1487 -23.4547 15.0763 -29.5442 16.5803 23.6791 -30.2253 -2.16992 -0.0885846 -3.15242 9.60319 4.14428 -20.4658 -11.473 7.0865 22.3763 
-219.673 90.8859 238.888 -102.763 -54.2509 -102.403 -177.79 -4.85141 85.1927 -27.9786 26.1988 3.96482 70.6759 9.12959 19.0026 38.6067 -2.9903 -1.98893 172.629 19.3981 85.9612 -17.687 0.127621 2.44128 50.0449 6.47735 25.2123 54.9709 -4.25339 -3.89055 -1.61155 8.32432 -89.6875 10.2385 -3.06809 0.881292 -1.42923 -3.02633 1.01558 -23.9935 -3.19096 -0.0824547 -3.98085 -3.19095 -0.0824649 97.8253 -54.6338 -88.5605 27.7132 0.770546 1.89045 -2.97879 -20.8153 -12.8086 -8.5304 -0.457847 1.12321 -82.1499 -46.1768 90.0221 -19.3874 15.1808 -27.8932 15.4993 25.1321 -28.8316 -1.28521 -0.076327 -2.72096 8.16406 2.78172 -14.2409 -9.7645 4.67637 19.0774 
-215.758 91.2891 234.089 -103.214 -53.3502 -101.69 -177.118 -0.435589 85.6344 -29.1064 23.9631 3.54255 71.2118 8.58267 17.1438 34.4901 -1.65187 -2.0712 171.052 21.8664 85.901 -39.6698 -7.89508 1.72623 51.9012 5.77591 23.561 51.904 -3.66783 -3.60129 -1.05146 8.22543 -89.9765 10.4267 -2.08374 0.230646 -1.2426 -2.07157 0.322179 -23.791 -2.05669 -0.40654 -3.77837 -2.05669 -0.406537 100.785 -52.4556 -84.2537 29.298 1.46287 4.0964 -4.27625 -23.7825 -13.8747 -6.29758 -0.370161 1.87339 -83.4461 -48.513 88.2151 -21.5863 14.6957 -21.6084 12.168 24.1319 -23.8471 3.01208 0.0548179 -1.3942 7.34366 1.5743 -9.0402 -10.1696 2.37725 17.1884 
-212.375 91.6727 229.552 -102.398 -51.0265 -99.3271 -176.663 3.54915 86.9532 -29.5337 19.6652 3.58048 70.3776 6.68764 13.2988 30.7819 -0.377463 -2.5522 173.103 18.5618 85.7655 -56.4968 -12.3444 -1.01944 51.3234 5.51229 21.4753 47.9436 -3.05318 -5.12525 -0.431555 7.97913 -90.3057 10.9133 -1.00055 -0.513577 -0.75731 -1.02218 -0.469049 -23.2938 -0.799941 -0.790547 -3.28115 -0.799939 -0.790548 102.257 -50.7727 -82.0255 29.4265 1.51842 5.25974 -4.5905 -23.4349 -14.5244 -5.64788 -0.322265 1.615 -83.9645 -49.9507 87.5772 -25.01 13.4179 -11.6698 10.9261 24.7491 -21.0776 2.34398 0.043541 -1.11542 7.25817 0.929384 -7.44488 -10.7905 1.41175 15.7031 
-209.17 91.8531 224.702 -100.896 -48.1109 -99.0731 -176.365 7.12796 86.4348 -27.633 19.3983 2.55719 65.8025 4.31028 13.6212 31.6943 -0.721111 -2.15037 174.001 10.1978 82.4244 -59.3642 -12.3115 -3.1801 50.7364 5.22284 19.5121 47.1417 -2.94283 -6.05595 -0.0526951 7.78043 -90.2272 11.3122 -0.21068 -0.431455 -0.358781 -0.229449 -0.421778 -22.8934 -0.0712784 -0.474829 -2.88071 -0.071263 -0.474823 101.755 -50.5113 -82.8023 29.4855 1.68146 4.08915 -4.61348 -20.4728 -16.0529 -9.28305 -0.550296 1.73787 -83.2823 -49.9944 88.6151 -26.6657 13.1715 -4.30836 9.4032 30.5925 -17.161 -0.612584 -0.0315091 -0.242752 7.53295 1.0352 -8.6922 -10.9281 1.67446 17.1685 
